<svg width="85" height="57" viewBox="0 0 85 57" fill="none" xmlns="http://www.w3.org/2000/svg">
<circle cx="2.5" cy="2.5" r="2.5" fill="#4194F3"/>
<circle cx="12.5" cy="2.5" r="2.5" fill="#4194F3"/>
<circle cx="22.5" cy="2.5" r="2.5" fill="#4194F3"/>
<circle cx="32.5" cy="2.5" r="2.5" fill="#4194F3"/>
<circle cx="42.5" cy="2.5" r="2.5" fill="#4194F3"/>
<circle cx="52.5" cy="2.5" r="2.5" fill="#4194F3"/>
<circle cx="62.5" cy="2.5" r="2.5" fill="#4194F3"/>
<circle cx="72.5" cy="2.5" r="2.5" fill="#4194F3"/>
<circle cx="82.5" cy="2.5" r="2.5" fill="#4194F3"/>
<circle cx="2.5" cy="15.5" r="2.5" fill="#4194F3"/>
<circle cx="12.5" cy="15.5" r="2.5" fill="#4194F3"/>
<circle cx="22.5" cy="15.5" r="2.5" fill="#4194F3"/>
<circle cx="32.5" cy="15.5" r="2.5" fill="#4194F3"/>
<circle cx="42.5" cy="15.5" r="2.5" fill="#4194F3"/>
<circle cx="52.5" cy="15.5" r="2.5" fill="#4194F3"/>
<circle cx="62.5" cy="15.5" r="2.5" fill="#4194F3"/>
<circle cx="72.5" cy="15.5" r="2.5" fill="#4194F3"/>
<circle cx="82.5" cy="15.5" r="2.5" fill="#4194F3"/>
<circle cx="2.5" cy="28.5" r="2.5" fill="#4194F3"/>
<circle cx="12.5" cy="28.5" r="2.5" fill="#4194F3"/>
<circle cx="22.5" cy="28.5" r="2.5" fill="#4194F3"/>
<circle cx="32.5" cy="28.5" r="2.5" fill="#4194F3"/>
<circle cx="42.5" cy="28.5" r="2.5" fill="#4194F3"/>
<circle cx="52.5" cy="28.5" r="2.5" fill="#4194F3"/>
<circle cx="62.5" cy="28.5" r="2.5" fill="#4194F3"/>
<circle cx="72.5" cy="28.5" r="2.5" fill="#4194F3"/>
<circle cx="82.5" cy="28.5" r="2.5" fill="#4194F3"/>
<circle cx="2.5" cy="41.5" r="2.5" fill="#4194F3"/>
<circle cx="12.5" cy="41.5" r="2.5" fill="#4194F3"/>
<circle cx="22.5" cy="41.5" r="2.5" fill="#4194F3"/>
<circle cx="32.5" cy="41.5" r="2.5" fill="#4194F3"/>
<circle cx="42.5" cy="41.5" r="2.5" fill="#4194F3"/>
<circle cx="52.5" cy="41.5" r="2.5" fill="#4194F3"/>
<circle cx="62.5" cy="41.5" r="2.5" fill="#4194F3"/>
<circle cx="72.5" cy="41.5" r="2.5" fill="#4194F3"/>
<circle cx="82.5" cy="41.5" r="2.5" fill="#4194F3"/>
<circle cx="2.5" cy="54.5" r="2.5" fill="#4194F3"/>
<circle cx="12.5" cy="54.5" r="2.5" fill="#4194F3"/>
<circle cx="22.5" cy="54.5" r="2.5" fill="#4194F3"/>
<circle cx="32.5" cy="54.5" r="2.5" fill="#4194F3"/>
<circle cx="42.5" cy="54.5" r="2.5" fill="#4194F3"/>
<circle cx="52.5" cy="54.5" r="2.5" fill="#4194F3"/>
<circle cx="62.5" cy="54.5" r="2.5" fill="#4194F3"/>
<circle cx="72.5" cy="54.5" r="2.5" fill="#4194F3"/>
<circle cx="82.5" cy="54.5" r="2.5" fill="#4194F3"/>
</svg>
