<svg width="24" height="24" viewBox="0 0 24 24" fill="none" xmlns="http://www.w3.org/2000/svg">
<g id="Icon_menu_point" clip-path="url(#clip0_702_4806)">
<g id="Union">
<path d="M3.66667 5C2.93029 5 2.33333 5.44772 2.33333 6C2.33333 6.55228 2.93029 7 3.66667 7H19.6667C20.403 7 21 6.55228 21 6C21 5.44772 20.403 5 19.6667 5H3.66667Z" fill="#007BFF"/>
<path d="M2.33333 12C2.33333 11.4477 2.93029 11 3.66667 11H19.6667C20.403 11 21 11.4477 21 12C21 12.5523 20.403 13 19.6667 13H3.66667C2.93029 13 2.33333 12.5523 2.33333 12Z" fill="#007BFF"/>
<path d="M3.66667 17C2.93029 17 2.33333 17.4477 2.33333 18C2.33333 18.5523 2.93029 19 3.66667 19H19.6667C20.403 19 21 18.5523 21 18C21 17.4477 20.403 17 19.6667 17H3.66667Z" fill="#007BFF"/>
</g>
</g>
<defs>
<clipPath id="clip0_702_4806">
<rect width="24" height="24" fill="white"/>
</clipPath>
</defs>
</svg>
